<svg version="1.1" viewBox="0 0 512 512" xmlns="http://www.w3.org/2000/svg">
    <g transform="translate(131 130.53)">
        <g fill="none" stroke="#FFF" stroke-linecap="round">
            <g stroke-width="18">
                <line x1="124.7" x2="124.7" y1="-13.16" y2="-43.427"/>
                <line x1="221.01" x2="242.41" y1="26.732" y2="5.33"/>
                <line x1="260.9" x2="291.17" y1="123.04" y2="123.04"/>
                <line x1="-11.502" x2="-41.769" y1="123.04" y2="123.04"/>
                <line x1="28.39" x2="6.9884" y1="26.732" y2="5.33"/>
                <path d="m39.5 123.35c-0.0864-23.312 11.385-44.423 26.773-59.591l58.834 59.515-0.10705-85.424c45.947-0.20115 85.269 39.553 85.5 85.5" stroke-linejoin="round"/>
            </g>
            <path d="m-8.7333 205.17c-7.5391-0.3276-10.349-9.4133-8.4336-15.556 3.4254-10.988 16.735-14.558 26.576-10.383 14.443 6.1276 18.87 24.148 12.331 37.597-8.7149 17.925-31.592 23.224-48.617 14.28-21.424-11.255-27.6-39.051-16.229-59.638 13.772-24.933 56.634-19.098 82.139-16.477 28.585 2.9377 64.743 3.6898 85.967 3.8625 21.224-0.1728 55.577-0.32355 85.967-3.8625 25.467-2.9658 68.367-8.4555 82.139 16.477 11.371 20.586 5.1948 48.383-16.229 59.638-17.025 8.944-39.902 3.6449-48.617-14.28-6.5385-13.449-2.1113-31.469 12.331-37.597 9.8415-4.1755 23.151-0.60543 26.576 10.383 1.9149 6.1428-0.89447 15.228-8.4336 15.556" stroke-linejoin="round" stroke-width="15.75"/>
        </g>
        <g fill="#FFF">
            <path d="m125 186.35c-6.8675 0-13.5 14.07-13.5 22.5v94.5c0.0405 0.045 27 0 27 0v-94.5c0-9.2829-6.1657-22.5-13.5-22.5z"/>
            <path d="m179 186.35c-6.8675 0-13.5 14.07-13.5 22.5v94.5c0.0405 0.045 27 0 27 0v-94.5c0-9.2829-6.1657-22.5-13.5-22.5z"/>
            <path d="m71 186.35c-6.8675 0-13.5 14.07-13.5 22.5v94.5h27v-94.5c0-9.2829-6.1657-22.5-13.5-22.5z"/>
        </g>
    </g>
</svg>
